<?xml version="1.0" encoding="UTF-8"?>
<svg version="1.1" viewBox="0 0 1216 1192" width="1280" height="1280" xmlns="http://www.w3.org/2000/svg">
<path transform="translate(625,87)" d="m0 0 43 4 33 5 29 6 41 13 24 9 26 11 35 18 18 11 27 18 17 13 16 13 10 8 17 16 13 13 13 14 9 11 12 14 14 19 13 19 10 16 14 24 10 21 12 28 15 40 7 26 7 32 5 36 3 36 1 18v12l-2 36-3 27-6 36-11 44-8 24-12 32-19 39-8 15-13 21-9 14-27 36-15 16-22 24-17 16-10 9-13 11-11 8-16 12-15 10-25 15-16 9-28 14-19 8-37 13-41 11-25 5-33 5-21 2-39 2-50-3-44-6-18-4-37-10-44-15-30-14-17-8-40-24-17-12-18-13-10-8-12-11-11-9-13-12-10-10-7-8-7-7-18-22-15-20-10-14-10-15-11-17-21-42-17-42-5-15-10-35-6-27-5-29-4-38v-7h83l2 7 5 38 7 37 9 30 5 15 12 28 11 23 14 26 18 27 11 13 9 11 9 10 7 8 16 17 10 10 11 9 14 12 14 10 19 13 28 16 29 14 19 8 31 11 40 10 26 4 30 3 23 1h14l38-2 38-5 25-6 21-6 22-8 25-10 35-17 21-13 11-7 11-8 15-11 14-11 7-7 8-7 12-11 11-11 7-8 10-12 12-16 11-15 13-21 11-19 14-30 12-31 7-22 9-36 6-37 2-37v-20l-2-34-7-42-9-35-6-18-11-27-17-35-18-30-11-16-14-19-8-10-12-14-12-12v-2l-4-2-19-19-11-9-13-10-15-11-17-11-13-8-28-15-19-9-29-12-33-10-28-6-24-4-30-4-1-1v-82z" fill="#FEFEFE"/>
<path transform="translate(625,223)" d="m0 0 36 4 33 7 29 9 20 8 23 10 24 13 16 10 17 11 13 10 14 11 12 11 21 21 8 10 9 10 11 15 13 19 13 22 8 16 10 21 11 29 6 20 5 22 5 33 2 30v20l-2 33-6 36-8 33-6 18-10 25-14 28-14 23-10 15-14 19-11 13-11 11-7 8-16 16-11 9-16 12-14 10-26 16-19 10-23 11-36 12-34 9-31 5-22 2-26 1-31-2-30-4-22-4-25-6-28-10-26-11-21-11-20-12-21-14-18-14-10-9-7-7-8-7-17-17-7-8-12-15-12-16-17-29-15-29-8-20-10-30-7-27-4-19v-4l16-1 60-6h7l9 35 10 28 9 20 12 22 11 16 11 15 11 13 26 26 13 10 18 13 18 11 17 9 27 11 22 7 22 5 26 4 22 2h21l36-4 22-4 20-5 26-9 27-12 22-13 10-7 16-12 4-4h2l1-3 11-9 14-14 7-8 12-15 10-14 12-20 12-23 8-19 6-18 7-30 4-23 1-15v-33l-2-23-4-23-6-25-10-30-11-24-10-18-8-12-14-20-8-10-30-30-19-14-17-11-14-8-23-11-23-9-27-8-25-5-23-3-1-1v-82z" fill="#FEFEFE"/>
<path transform="translate(625,359)" d="m0 0 23 3 27 7 26 9 16 8 21 13 15 10 13 12 8 7 9 9 9 11 10 13 11 17 10 18 10 24 7 24 6 31 2 20v23l-2 23-3 13-10-3-64-20-6-3v-33l-3-25-8-25-12-25-7-11-10-13-7-7-22-18-11-7-16-8-24-9-18-4-1-1v-82z" fill="#FEFEFE"/>
</svg>
