<?xml version="1.0" encoding="UTF-8"?>
<svg version="1.1" viewBox="0 0 2048 488" width="1280" height="1280" xmlns="http://www.w3.org/2000/svg">
<path transform="translate(269,36)" d="m0 0 16 1 24 4 20 6 20 8 19 10 18 12 13 11 8 7 10 10 9 11 11 15 11 19 9 20 8 24 3 13 3 26v30l-3 24-4 17-8 24-8 18-12 20-13 17-11 12-14 14-13 10-15 10-18 10-19 8-23 7-21 4-18 2h-24l-27-3-20-5-26-9-23-12-18-12-10-8-10-9-7-6-7-8-12-15-14-21-11-23-9-27-5-24-2-16v-5h34l2 11 4 23 5 17 9 20 8 15 10 14 10 11 7 8 10 9 18 13 25 13 19 7 23 5 18 2h21l19-2 23-5 20-8 16-8 13-8 12-9 11-10 12-12 10-13 10-16 9-19 7-21 3-13 2-14 1-13v-11l-2-20-3-16-5-17-8-19-11-19-12-16-9-10-12-12-17-13-15-9-19-9-21-7-20-4-14-2z" fill="#FEFEFE"/>
<path transform="translate(1480,135)" d="m0 0h24l17 3 16 5 15 8 13 10 7 7 10 14 8 16 5 13 4 22 1 19-2 23-4 18-6 16-8 14-8 10-10 10-15 10-13 6-13 4-19 3h-21l-18-3-15-5-16-8-10-8-8-7-11-14-8-15-6-17-3-16-1-8v-30l3-18 5-17 8-16 9-13 7-8 14-11 12-7 16-6zm3 35-16 4-11 6-10 9-8 11-5 10-5 16-2 15v16l2 17 5 18 7 13 11 12 14 9 11 4 7 1h18l13-3 15-8 11-10 9-14 5-14 3-15 1-20-2-20-4-15-8-16-11-12-10-7-13-5-10-2z" fill="#FEFEFE"/>
<path transform="translate(654,135)" d="m0 0h24l21 4 16 6 15 9 12 11 9 10 9 15 7 17 4 17 2 15v22l-3 22-4 15-7 16-7 11-12 14-10 8-13 8-15 6-18 4-8 1h-21l-18-3-18-6-15-8-13-11-8-8-7-10-8-15-6-18-3-16-1-11v-20l2-17 5-19 7-16 7-11 9-11 7-7 14-10 17-8 21-5zm3 35-16 4-10 5-10 8-9 12-6 12-4 13-2 11v29l3 17 4 12 6 11 9 10 8 7 16 8 10 2h19l12-3 12-6 9-7 7-7 7-11 5-13 4-19v-29l-4-19-5-13-7-11-8-9-11-7-12-5-10-2z" fill="#FEFEFE"/>
<path transform="translate(1203,138)" d="m0 0h38l23 3 21 6 16 8 11 7 11 10 9 12 6 11 5 12 4 15 2 17v23l-3 20-5 17-8 16-11 14-8 8-10 7-17 9-21 6-14 3-22 2h-14l-32-2-19-3-4-1v-215l17-3zm9 34-11 1v156h39l16-3 14-5 11-7 9-8 9-14 5-13 3-17v-23l-3-17-6-16-7-10-6-7-14-9-10-4-14-3-11-1z" fill="#FEFEFE"/>
<path transform="translate(269,92)" d="m0 0h8l25 5 21 8 17 9 12 8 10 8 15 15 9 11 9 14 8 15 7 19 4 17 2 16v22l-3 22-6 20-7 16-8 15-11 15-12 13-7 7-18 13-18 10-12 5-16 5-20 4-11 1h-16l-23-3-17-4-22-9-16-9-16-12-13-12-12-14-10-16-8-16-6-17-4-16v-4l11-2 11-1h11l2 6 5 17 8 16 10 15 10 12 14 11 14 9 16 7 14 4 19 3h18l19-3 15-4 18-8 11-7 11-9 10-10 10-13 9-16 6-15 4-17 1-7v-21l-2-17-4-15-6-15-6-11-10-14-15-15-14-10-19-9-21-6-13-2-2-1z" fill="#FEFEFE"/>
<path transform="translate(1906,135)" d="m0 0h24l20 3 21 7 7 4-2 9-9 23-5-1-16-6-13-3-9-1h-16l-12 3-8 6-4 5-2 5v12l6 12 11 8 22 10 25 10 12 6 9 7 8 7 6 9 5 10 2 9v27l-4 13-5 9-9 10-11 7-11 5-15 4-18 2h-18l-21-2-21-5-15-6-5-3 3-11 7-20 4-1 20 8 11 3 6 1h35l10-3 9-6 4-6 2-7v-11l-4-9-7-8-10-6-15-7-19-7-20-9-12-8-8-8-7-11-4-11-1-7v-14l2-12 5-12 7-10 9-8 13-8 12-4z" fill="#FEFEFE"/>
<path transform="translate(1043,135)" d="m0 0h23l20 3 16 5 12 6-1 7-10 25-5-1-12-5-17-4-9-1h-16l-11 3-9 6-5 8-1 4v8l4 11 7 7 12 7 34 14 14 6 12 8 10 9 7 10 5 12 2 13v14l-3 15-7 14-10 10-13 8-18 6-11 2-12 1h-17l-21-2-18-4-19-7-5-3 3-10 8-22 5 1 24 9 11 2h35l13-4 9-8 3-8v-14l-4-9-8-8-14-8-31-12-16-7-12-8-6-5-8-10-5-11-2-7-1-8v-9l3-16 4-10 10-13 12-9 10-5 9-3z" fill="#FEFEFE"/>
<path transform="translate(871,135)" d="m0 0h21l21 3 16 5 12 6-1 7-10 25-5-1-13-5-17-4-9-1h-15l-11 3-8 5-4 5-3 8v8l4 11 8 8 16 8 29 12 13 6 12 7 12 11 7 11 4 10 2 16-1 18-4 13-7 11-8 8-13 8-15 5-15 3-11 1h-17l-21-2-18-4-19-7-5-3 3-10 8-22 5 1 24 9 11 2h35l13-4 9-8 3-8v-14l-5-10-7-7-12-7-33-13-14-6-14-9-7-6-8-11-4-8-2-8-1-12 1-13 5-16 9-13 8-7 11-7 14-5z" fill="#FEFEFE"/>
<path transform="translate(1732,135)" d="m0 0h27l19 3 18 5 14 8-3 11-8 21-6-2-13-5-20-4-17-1-15 2-14 5-11 7-8 8-7 11-6 16-2 9-1 9v24l3 19 5 14 6 11 9 10 13 8 15 5 7 1h21l16-2 24-8 4-1 4 10 6 18-1 5-11 5-17 5-18 3-11 1h-23l-15-2-20-6-17-9-11-9-10-11-8-13-7-16-5-19-2-15v-30l3-18 5-17 8-16 7-11 11-12 14-11 16-8 16-5z" fill="#FEFEFE"/>
<path transform="translate(269,147)" d="m0 0 14 2 18 6 14 8 12 9 12 13 10 16 7 16 4 20v23l-1 7-10-2-22-7-1-1-1-18-4-16-7-14-9-10-12-9-11-5-13-4z" fill="#FEFEFE"/>
</svg>
